<svg width="24" height="24" viewBox="0 0 24 24" xmlns="http://www.w3.org/2000/svg"><title>star</title><path d="M14.465 14.416a1 1 0 0 1 .377-1.114l1.58-1.118a1 1 0 0 1 1.156 1.632l-.987.699 1.926 6.188c.29.931-.79 1.684-1.564 1.09L12 17.992l-4.953 3.801c-.775.594-1.854-.159-1.564-1.09l1.934-6.213-5.022-3.819c-.764-.58-.352-1.798.607-1.796l6.146.015 1.896-6.183c.289-.943 1.623-.943 1.912 0l1.896 6.183 6.146-.015a1 1 0 0 1 .004 2l-6.886.016a1 1 0 0 1-.958-.707L12 6.41l-1.158 3.774a1 1 0 0 1-.958.707l-3.908-.009 3.21 2.44a1 1 0 0 1 .349 1.094l-1.206 3.872 3.062-2.35a1 1 0 0 1 1.218 0l3.062 2.35-1.206-3.872z" fill="#000" fill-rule="nonzero"/></svg>